<svg width="20" height="20" viewBox="0 0 20 20" fill="none" xmlns="http://www.w3.org/2000/svg">
<path d="M9.99935 15.8333L6.69102 17.8166C6.4318 17.9723 6.13509 18.0546 5.83268 18.0546C5.53028 18.0546 5.23357 17.9723 4.97435 17.8166L2.47435 16.3166C2.22831 16.1688 2.02462 15.9599 1.88301 15.7103C1.74139 15.4606 1.66664 15.1786 1.66602 14.8916V12.1916C1.66664 11.9046 1.74139 11.6226 1.88301 11.3729C2.02462 11.1233 2.22831 10.9144 2.47435 10.7666L5.83268 8.74992M9.99935 15.8333V11.2499M9.99935 15.8333L13.3077 17.8166C13.5669 17.9723 13.8636 18.0546 14.166 18.0546C14.4684 18.0546 14.7651 17.9723 15.0243 17.8166L17.5243 16.3166C17.7704 16.1688 17.9741 15.9599 18.1157 15.7103C18.2573 15.4606 18.3321 15.1786 18.3327 14.8916V12.1916C18.3321 11.9046 18.2573 11.6226 18.1157 11.3729C17.9741 11.1233 17.7704 10.9144 17.5243 10.7666L14.166 8.74992M9.99935 11.2499L5.83268 8.74992M9.99935 11.2499L5.83269 13.7498M9.99935 11.2499L14.166 8.74992M9.99935 11.2499L14.166 13.7499M9.99935 11.2499L9.99936 6.6665M5.83268 8.74992V5.10833C5.83331 4.82131 5.90805 4.53931 6.04967 4.28965C6.19129 4.04 6.39498 3.83115 6.64102 3.68333L9.14102 2.18333C9.40024 2.02759 9.69694 1.94531 9.99935 1.94531C10.3018 1.94531 10.5985 2.02759 10.8577 2.18333L13.3577 3.68333C13.6037 3.83115 13.8074 4.04 13.949 4.28965C14.0906 4.53931 14.1654 4.82131 14.166 5.10833V8.74992M5.83269 13.7498L1.88269 11.3748M5.83269 13.7498L5.83268 18.0583M14.166 13.7499L18.116 11.3748M14.166 13.7499V18.0583M9.99936 6.6665L6.04936 4.2915M9.99936 6.6665L13.9493 4.2915" stroke="#111827" stroke-linecap="round" stroke-linejoin="round"/>
</svg>
