<svg width="20" height="20" viewBox="0 0 20 20" fill="none" xmlns="http://www.w3.org/2000/svg">
<path d="M4.99984 18.3327V3.33268C4.99984 2.89065 5.17543 2.46673 5.48799 2.15417C5.80055 1.84161 6.22448 1.66602 6.6665 1.66602H13.3332C13.7752 1.66602 14.1991 1.84161 14.5117 2.15417C14.8242 2.46673 14.9998 2.89065 14.9998 3.33268V18.3327M4.99984 18.3327H14.9998M4.99984 18.3327H3.33317C2.89114 18.3327 2.46722 18.1571 2.15466 17.8445C1.8421 17.532 1.6665 17.108 1.6665 16.666V11.666C1.6665 11.224 1.8421 10.8001 2.15466 10.4875C2.46722 10.1749 2.89114 9.99935 3.33317 9.99935H4.99984M14.9998 18.3327H16.6665C17.1085 18.3327 17.5325 18.1571 17.845 17.8445C18.1576 17.532 18.3332 17.108 18.3332 16.666V9.16602C18.3332 8.72399 18.1576 8.30007 17.845 7.9875C17.5325 7.67494 17.1085 7.49935 16.6665 7.49935H14.9998M8.33317 4.99935H11.6665M8.33317 8.33268H11.6665M8.33317 11.666H11.6665M8.33317 14.9993H11.6665" stroke="#111827" stroke-linecap="round" stroke-linejoin="round"/>
</svg>
