<svg width="20" height="20" viewBox="0 0 20 20" fill="none" xmlns="http://www.w3.org/2000/svg">
<path d="M7.50002 14.1663H5.83335C4.72829 14.1663 3.66848 13.7274 2.88708 12.946C2.10567 12.1646 1.66669 11.1047 1.66669 9.99967C1.66669 8.89461 2.10567 7.8348 2.88708 7.0534C3.66848 6.27199 4.72829 5.83301 5.83335 5.83301H7.50002M12.5 5.83301H14.1667C15.2718 5.83301 16.3316 6.27199 17.113 7.0534C17.8944 7.8348 18.3334 8.89461 18.3334 9.99967C18.3334 11.1047 17.8944 12.1646 17.113 12.946C16.3316 13.7274 15.2718 14.1663 14.1667 14.1663H12.5M6.66669 9.99967H13.3334" stroke="#F87B1B" stroke-linecap="round" stroke-linejoin="round"/>
</svg>
