<svg width="20" height="20" viewBox="0 0 20 20" fill="none" xmlns="http://www.w3.org/2000/svg">
<path d="M17.5 4.16699C17.5 5.5477 14.1421 6.66699 10 6.66699C5.85786 6.66699 2.5 5.5477 2.5 4.16699M17.5 4.16699C17.5 2.78628 14.1421 1.66699 10 1.66699C5.85786 1.66699 2.5 2.78628 2.5 4.16699M17.5 4.16699V15.8337C17.5 16.4967 16.7098 17.1326 15.3033 17.6014C13.8968 18.0703 11.9891 18.3337 10 18.3337C8.01088 18.3337 6.10322 18.0703 4.6967 17.6014C3.29018 17.1326 2.5 16.4967 2.5 15.8337V4.16699M2.5 10.0003C2.5 10.6634 3.29018 11.2993 4.6967 11.7681C6.10322 12.2369 8.01088 12.5003 10 12.5003C11.9891 12.5003 13.8968 12.2369 15.3033 11.7681C16.7098 11.2993 17.5 10.6634 17.5 10.0003" stroke="#F87B1B" stroke-linecap="round" stroke-linejoin="round"/>
</svg>
