<svg width="20" height="20" viewBox="0 0 20 20" fill="none" xmlns="http://www.w3.org/2000/svg">
<path d="M10.0013 7.49935L15.0013 12.4993M15.0013 7.49935L10.0013 12.4993M8.33459 4.16602C7.92049 4.16604 7.52123 4.32022 7.21459 4.59852L1.94126 9.38185C1.85519 9.45996 1.78641 9.55521 1.73935 9.66149C1.69228 9.76776 1.66797 9.8827 1.66797 9.99893C1.66797 10.1152 1.69228 10.2301 1.73935 10.3364C1.78641 10.4427 1.85519 10.5379 1.94126 10.616L7.21459 15.4002C7.52123 15.6785 7.92049 15.8327 8.33459 15.8327H16.6679C17.1099 15.8327 17.5339 15.6571 17.8464 15.3445C18.159 15.032 18.3346 14.608 18.3346 14.166V5.83268C18.3346 5.39065 18.159 4.96673 17.8464 4.65417C17.5339 4.34161 17.1099 4.16602 16.6679 4.16602H8.33459Z" stroke="#70747D" stroke-linecap="round" stroke-linejoin="round"/>
</svg>
