<svg width="20" height="20" viewBox="0 0 20 20" fill="none" xmlns="http://www.w3.org/2000/svg">
<path d="M11.6665 5.83366L14.1665 8.33366M4.16646 5.00033V8.33366M15.8331 11.667V15.0003M8.33313 1.66699V3.33366M5.83313 6.66699H2.4998M17.4998 13.3337H14.1665M9.16646 2.50033H7.4998M18.0332 3.0337L16.9665 1.96703C16.8727 1.87229 16.7611 1.79709 16.6381 1.74576C16.5151 1.69444 16.3831 1.66801 16.2498 1.66801C16.1165 1.66801 15.9846 1.69444 15.8616 1.74576C15.7385 1.79709 15.6269 1.87229 15.5332 1.96703L1.9665 15.5337C1.87176 15.6275 1.79656 15.7391 1.74523 15.8621C1.69391 15.9851 1.66748 16.1171 1.66748 16.2504C1.66748 16.3837 1.69391 16.5156 1.74523 16.6386C1.79656 16.7617 1.87176 16.8733 1.9665 16.967L3.03317 18.0337C3.12635 18.1295 3.23778 18.2056 3.36087 18.2575C3.48396 18.3095 3.61622 18.3363 3.74983 18.3363C3.88345 18.3363 4.01571 18.3095 4.1388 18.2575C4.26189 18.2056 4.37332 18.1295 4.4665 18.0337L18.0332 4.46703C18.1289 4.37385 18.205 4.26242 18.257 4.13933C18.309 4.01623 18.3358 3.88398 18.3358 3.75036C18.3358 3.61675 18.309 3.48449 18.257 3.3614C18.205 3.23831 18.1289 3.12688 18.0332 3.0337Z" stroke="#F87B1B" stroke-linecap="round" stroke-linejoin="round"/>
</svg>
