<svg width="16" height="16" viewBox="0 0 16 16" fill="none" xmlns="http://www.w3.org/2000/svg">
<path d="M14.6668 8.66797V4.0013C14.6668 3.64768 14.5264 3.30854 14.2763 3.05849C14.0263 2.80844 13.6871 2.66797 13.3335 2.66797H2.66683C2.31321 2.66797 1.97407 2.80844 1.72402 3.05849C1.47397 3.30854 1.3335 3.64768 1.3335 4.0013V12.0013C1.3335 12.7346 1.9335 13.3346 2.66683 13.3346H8.00016M14.6668 4.66797L8.68683 8.46797C8.48101 8.59692 8.24304 8.66531 8.00016 8.66531C7.75728 8.66531 7.51932 8.59692 7.3135 8.46797L1.3335 4.66797" stroke="#111827" stroke-linecap="round" stroke-linejoin="round"/>
<path d="M9.94287 12.9996C9.94287 12.3631 10.1957 11.7526 10.6458 11.3026C11.0959 10.8525 11.7064 10.5996 12.3429 10.5996C13.0138 10.6021 13.6578 10.8639 14.1402 11.3303L14.7429 11.9329M14.7429 11.9329V10.5996M14.7429 11.9329H13.4095M14.7429 12.9996C14.7429 13.6361 14.49 14.2466 14.0399 14.6967C13.5898 15.1468 12.9794 15.3996 12.3429 15.3996C11.6719 15.3971 11.0279 15.1353 10.5455 14.6689L9.94287 14.0663M9.94287 14.0663H11.2762M9.94287 14.0663V15.3996" stroke="#111827" stroke-width="0.8" stroke-linecap="round" stroke-linejoin="round"/>
</svg>
