<svg width="20" height="20" viewBox="0 0 20 20" fill="none" xmlns="http://www.w3.org/2000/svg">
<path d="M9.16764 6.33358L4.17264 13.1586C4.0551 13.3191 3.9989 13.5164 4.01418 13.7148C4.02947 13.9132 4.11523 14.0996 4.25597 14.2402L4.9368 14.9219C5.07959 15.0645 5.2693 15.1505 5.47068 15.1638C5.67207 15.1772 5.87145 15.117 6.0318 14.9944L12.576 9.99941M13.7509 17.6443C12.9176 17.0827 11.9776 16.666 10.8343 16.666C9.11926 16.666 7.56093 18.6293 5.83426 18.3327C4.10759 18.036 3.52176 15.5252 4.58426 14.5827M17.5009 5.83268C17.5009 8.13387 15.6354 9.99935 13.3342 9.99935C11.033 9.99935 9.16756 8.13387 9.16756 5.83268C9.16756 3.5315 11.033 1.66602 13.3342 1.66602C15.6354 1.66602 17.5009 3.5315 17.5009 5.83268Z" stroke="#111827" stroke-linecap="round" stroke-linejoin="round"/>
</svg>
