<svg width="24" height="24" viewBox="0 0 24 24" fill="none" xmlns="http://www.w3.org/2000/svg">
<path d="M10.9996 7.60107L5.0056 15.7911C4.86456 15.9837 4.79712 16.2205 4.81546 16.4586C4.8338 16.6966 4.93672 16.9203 5.1056 17.0891L5.9226 17.9071C6.09395 18.0782 6.32159 18.1814 6.56326 18.1974C6.80492 18.2134 7.04418 18.1412 7.2366 17.9941L15.0896 12.0001M16.4995 21.174C15.4995 20.5 14.3715 20 12.9995 20C10.9415 20 9.07155 22.356 6.99955 22C4.92755 21.644 4.22455 18.631 5.49955 17.5M20.9995 7C20.9995 9.76142 18.7609 12 15.9995 12C13.2381 12 10.9995 9.76142 10.9995 7C10.9995 4.23858 13.2381 2 15.9995 2C18.7609 2 20.9995 4.23858 20.9995 7Z" stroke="#E861F4" stroke-linecap="round" stroke-linejoin="round"/>
</svg>
