<svg width="40" height="40" viewBox="0 0 40 40" fill="none" xmlns="http://www.w3.org/2000/svg">
<rect width="40" height="40" rx="8" fill="#E861F4" fill-opacity="0.12"/>
<path d="M20 23.0002L17 20.0002M20 23.0002C21.3968 22.469 22.7369 21.799 24 21.0002M20 23.0002V28.0002C20 28.0002 23.03 27.4502 24 26.0002C25.08 24.3802 24 21.0002 24 21.0002M17 20.0002C17.5321 18.6197 18.2022 17.2963 19 16.0502C20.1652 14.1872 21.7876 12.6533 23.713 11.5943C25.6384 10.5354 27.8027 9.98662 30 10.0002C30 12.7202 29.22 17.5002 24 21.0002M17 20.0002L12 20.0003C12 20.0003 12.55 16.9703 14 16.0003C15.62 14.9203 19 16.0003 19 16.0003M12.5 24.5003C11 25.7603 10.5 29.5003 10.5 29.5003C10.5 29.5003 14.24 29.0003 15.5 27.5003C16.21 26.6603 16.2 25.3703 15.41 24.5903C15.0213 24.2193 14.5093 24.005 13.9722 23.9883C13.4352 23.9717 12.9109 24.1541 12.5 24.5003Z" stroke="#E861F4" stroke-linecap="round" stroke-linejoin="round"/>
</svg>
