<svg width="20" height="20" viewBox="0 0 20 20" fill="none" xmlns="http://www.w3.org/2000/svg">
<path d="M3.74935 6.66747L12.566 2.4508C12.666 2.40297 12.7744 2.37554 12.8851 2.37013C12.9958 2.36473 13.1064 2.38145 13.2106 2.41931C13.3147 2.45718 13.4102 2.51543 13.4916 2.59067C13.5729 2.6659 13.6385 2.75661 13.6843 2.85747L15.416 6.66747M4.99935 8.33411V6.66744M4.99935 11.6674V12.5008M4.99935 15.8341V17.5008M3.33268 6.66744H16.666C17.5865 6.66744 18.3327 7.41363 18.3327 8.33411V15.8341C18.3327 16.7546 17.5865 17.5008 16.666 17.5008H3.33268C2.41221 17.5008 1.66602 16.7546 1.66602 15.8341V8.33411C1.66602 7.41363 2.41221 6.66744 3.33268 6.66744Z" stroke="#F87B1B" stroke-linecap="round" stroke-linejoin="round"/>
</svg>
