<svg width="20" height="20" viewBox="0 0 20 20" fill="none" xmlns="http://www.w3.org/2000/svg">
<path d="M10.8327 4.16602V5.83268M10.8327 14.166V15.8327M10.8327 9.16602V10.8327M1.66602 7.49935C2.32906 7.49935 2.96494 7.76274 3.43378 8.23158C3.90262 8.70042 4.16602 9.33631 4.16602 9.99935C4.16602 10.6624 3.90262 11.2983 3.43378 11.7671C2.96494 12.236 2.32906 12.4993 1.66602 12.4993V14.166C1.66602 14.608 1.84161 15.032 2.15417 15.3445C2.46673 15.6571 2.89065 15.8327 3.33268 15.8327H16.666C17.108 15.8327 17.532 15.6571 17.8445 15.3445C18.1571 15.032 18.3327 14.608 18.3327 14.166V12.4993C17.6696 12.4993 17.0338 12.236 16.5649 11.7671C16.0961 11.2983 15.8327 10.6624 15.8327 9.99935C15.8327 9.33631 16.0961 8.70042 16.5649 8.23158C17.0338 7.76274 17.6696 7.49935 18.3327 7.49935V5.83268C18.3327 5.39065 18.1571 4.96673 17.8445 4.65417C17.532 4.34161 17.108 4.16602 16.666 4.16602H3.33268C2.89065 4.16602 2.46673 4.34161 2.15417 4.65417C1.84161 4.96673 1.66602 5.39065 1.66602 5.83268V7.49935Z" stroke="#F87B1B" stroke-linecap="round" stroke-linejoin="round"/>
</svg>
