<svg width="20" height="20" viewBox="0 0 20 20" fill="none" xmlns="http://www.w3.org/2000/svg">
<path d="M13.3327 17.5V15.8333C13.3327 14.9493 12.9815 14.1014 12.3564 13.4763C11.7313 12.8512 10.8834 12.5 9.99935 12.5H4.99935C4.11529 12.5 3.26745 12.8512 2.64233 13.4763C2.01721 14.1014 1.66602 14.9493 1.66602 15.8333V17.5M18.3327 17.4999V15.8332C18.3321 15.0947 18.0863 14.3772 17.6338 13.7935C17.1813 13.2098 16.5478 12.7929 15.8327 12.6082M13.3327 2.60824C14.0497 2.79182 14.6852 3.20882 15.139 3.79349C15.5929 4.37817 15.8392 5.09726 15.8392 5.8374C15.8392 6.57754 15.5929 7.29664 15.139 7.88131C14.6852 8.46598 14.0497 8.88298 13.3327 9.06657M10.8327 5.83333C10.8327 7.67428 9.3403 9.16667 7.49935 9.16667C5.6584 9.16667 4.16602 7.67428 4.16602 5.83333C4.16602 3.99238 5.6584 2.5 7.49935 2.5C9.3403 2.5 10.8327 3.99238 10.8327 5.83333Z" stroke="#111827" stroke-linecap="round" stroke-linejoin="round"/>
</svg>
